<?xml version="1.0" encoding="UTF-8"?>
<svg width="210px" height="46px" viewBox="0 0 210 46" version="1.1" xmlns="http://www.w3.org/2000/svg" xmlns:xlink="http://www.w3.org/1999/xlink">
    <!-- Generator: sketchtool 51.3 (57544) - http://www.bohemiancoding.com/sketch -->
    <title>040D45CA-94C2-4673-87D6-A449A3FDDE68</title>
    <desc>Created with sketchtool.</desc>
    <defs></defs>
    <g id="Symbols-(Mercdev-Logos)" stroke="none" stroke-width="1" fill="none" fill-rule="evenodd">
        <g id="Branding/Mercury/LOGO/W-Mercury-Development" fill="#FFFFFF" fill-rule="nonzero">
            <g id="logo210x46_red_black">
                <path d="M24.3645455,38.953764 C21.0731039,36.0232196 19,31.7537095 19,27 C19,18.163444 26.163444,11 35,11 C40.7182078,11 45.7358016,13.9996851 48.5650336,18.5113076 C45.6613372,15.1945761 41.396019,13.1000061 36.6414878,13.1000061 C27.8924689,13.1000061 20.7999878,20.1924872 20.7999878,28.9415061 C20.7999878,32.7392581 22.1363762,36.2248799 24.3645455,38.953764 Z M38.6618289,37.8189179 C36.5501739,37.2338031 35,35.2979328 35,33 C35,30.2385763 37.2385763,28 40,28 C41.7421918,28 43.2762698,28.8910411 44.1713729,30.242262 C43.3476315,29.5305046 42.274102,29.1000061 41.1000242,29.1000061 C38.504286,29.1000061 36.4000244,31.2042677 36.4000244,33.8000059 C36.4000244,35.5030094 37.3057758,36.9944632 38.6618289,37.8189179 Z M57.43,25.273 C57.213,25.702 56.84,25.923 56.31,25.936 L54.378,25.916 C53.793,25.902 53.636,25.622 53.908,25.072 L60.376,12.789 C60.696,12.199 61.449,11.905 62.633,11.905 C63.818,11.905 64.553,12.185 64.838,12.749 L69.802,22.247 L74.776,12.789 C75.076,12.199 75.817,11.905 77.002,11.905 C78.186,11.905 78.928,12.185 79.228,12.749 L85.613,25.072 C85.912,25.634 85.735,25.922 85.079,25.936 L83.219,25.936 C82.704,25.922 82.338,25.702 82.123,25.273 L77.629,16.227 C77.211,15.155 76.796,15.155 76.385,16.227 L72.06,24.86 C71.447,25.577 70.844,25.935 70.252,25.935 L69.102,25.935 C68.559,25.935 68.029,25.59 67.515,24.901 L63.23,16.226 C62.818,15.241 62.411,15.241 62.007,16.226 L57.43,25.272 L57.43,25.273 Z M92.248,20.308 L92.248,22.087 C92.248,22.77 92.608,23.112 93.324,23.112 L105.196,23.112 C106.22,23.112 106.731,23.577 106.731,24.51 C106.731,25.447 106.181,25.916 105.081,25.916 L90.566,25.916 C89.263,25.916 88.612,25.373 88.612,24.288 L88.612,13.553 C88.612,12.454 89.232,11.904 90.472,11.904 L105.196,11.904 C106.22,11.891 106.731,12.35 106.731,13.282 C106.731,14.233 106.227,14.695 105.217,14.668 L93.324,14.668 C92.607,14.708 92.248,15.038 92.248,15.654 L92.248,17.534 L98.183,17.534 C99.431,17.56 100.054,18.025 100.054,18.931 C100.054,19.875 99.41,20.335 98.121,20.308 L92.248,20.308 Z M118.258,20.308 C116.976,20.335 116.335,19.875 116.335,18.931 C116.335,18.025 116.948,17.561 118.175,17.533 L122.009,17.533 C123.054,17.533 123.705,17.319 123.963,16.89 C124.019,16.796 124.065,16.687 124.099,16.563 C124.134,16.44 124.152,16.293 124.152,16.126 C124.152,15.77 124.076,15.511 123.926,15.347 C123.776,15.183 123.466,15.044 122.993,14.93 C122.647087,14.8546786 122.296166,14.804547 121.943,14.78 C121.464432,14.742786 120.984907,14.7191099 120.505,14.709 L114.485,14.709 C113.643,14.709 113.222,15.05 113.222,15.734 L113.222,24.51 C113.27,25.46 112.671,25.93 111.424,25.916 C110.198,25.916 109.584,25.447 109.584,24.51 L109.584,13.674 C109.584,12.507 110.264,11.918 111.622,11.904 L120.442,11.904 C123.569,11.918 125.726,12.558 126.911,13.824 C127.481,14.481 127.767,15.248 127.767,16.126 C127.656,17.774 126.778,18.756 125.134,19.071 C126.764,19.359 127.621,20.247 127.705,21.734 L127.705,24.51 C127.705,25.447 127.092,25.916 125.865,25.916 C124.653,25.916 124.061,25.447 124.089,24.51 L124.089,21.715 C124.130127,21.5794852 124.133584,21.4353304 124.099,21.298 C124.068573,21.1833819 124.022827,21.0733907 123.963,20.971 C123.705,20.528 123.053,20.308 122.009,20.308 L118.259,20.308 L118.258,20.308 Z M148.72,24.51 C148.72,25.447 148.208,25.923 147.183,25.936 L139.702,25.936 C136.978,25.936 134.772,25.296 133.087,24.016 C131.429,22.743 130.599,21.048 130.599,18.931 C130.599,16.841 131.429,15.158 133.087,13.885 C134.801,12.591 136.985,11.931 139.639,11.905 L147.183,11.905 C148.208,11.891 148.72,12.35 148.72,13.282 C148.72,14.232 148.214,14.695 147.205,14.668 L146.598,14.708 L139.638,14.708 C138.058,14.736 136.758,15.141 135.741,15.925 C134.737,16.736 134.236,17.737 134.236,18.931 C134.236,20.713 135.173,21.956 137.047,22.66 C137.870073,22.9896051 138.752945,23.1435627 139.639,23.112 L147.183,23.112 C148.208,23.112 148.72,23.577 148.72,24.509 L148.72,24.51 Z M169.713,13.693 L169.713,18.931 C169.755,21.034 168.936,22.73 167.257,24.016 C165.599,25.296 163.404,25.936 160.675,25.936 C157.95,25.936 155.745,25.296 154.059,24.016 C152.401,22.744 151.572,21.048 151.572,18.931 L151.572,13.321 C151.572,12.417 152.185,11.951 153.412,11.925 C154.658,11.911 155.258,12.377 155.208,13.322 L155.208,18.931 C155.208,20.713 156.145,21.956 158.019,22.659 C158.96,22.975 159.845,23.132 160.675,23.132 C162.792,23.132 164.355,22.502 165.366,21.242 C165.61,20.921 165.792,20.565 165.914,20.177 C166.038605,19.7672862 166.08674,19.338138 166.056,18.911 L166.056,13.321 C166.014,12.377 166.613,11.911 167.853,11.925 C169.079,11.951 169.693,12.417 169.693,13.322 L169.713,13.693 Z M181.26,20.308 C179.978,20.335 179.337,19.875 179.337,18.931 C179.337,18.025 179.95,17.561 181.177,17.533 L185.011,17.533 C186.056,17.533 186.708,17.319 186.965,16.89 C187.021,16.796 187.067,16.687 187.101,16.563 C187.136,16.44 187.154,16.293 187.154,16.126 C187.154,15.77 187.079,15.511 186.929,15.347 C186.779,15.183 186.468,15.044 185.994,14.93 C185.648087,14.8546786 185.297166,14.804547 184.944,14.78 C184.465764,14.7428049 183.986573,14.7191287 183.507,14.709 L177.487,14.709 C176.644,14.709 176.224,15.05 176.224,15.734 L176.224,24.51 C176.272,25.46 175.673,25.93 174.426,25.916 C173.2,25.916 172.586,25.447 172.586,24.51 L172.586,13.674 C172.586,12.507 173.266,11.918 174.624,11.904 L183.444,11.904 C186.572,11.918 188.728,12.558 189.913,13.824 C190.483,14.481 190.77,15.248 190.77,16.126 C190.658,17.774 189.78,18.756 188.136,19.071 C189.766,19.359 190.623,20.247 190.707,21.734 L190.707,24.51 C190.707,25.447 190.093,25.916 188.867,25.916 C187.655,25.916 187.064,25.447 187.092,24.51 L187.092,21.715 C187.132798,21.5793941 187.135909,21.4352398 187.101,21.298 C187.070584,21.183378 187.024838,21.0733852 186.965,20.971 C186.708,20.528 186.056,20.308 185.011,20.308 L181.261,20.308 L181.26,20.308 Z M203.048,24.54 C203.062,25.457 202.434,25.916 201.168,25.916 C199.906,25.916 199.318,25.446 199.401,24.509 L199.401,19.091 L199.212,18.911 C199.144,18.843 199.037,18.738 198.894,18.594 C198.694974,18.3936914 198.494972,18.1943557 198.294,17.996 C197.435883,17.1476859 196.589141,16.2879425 195.754,15.417 C195.021141,14.6594839 194.289474,13.9008163 193.559,13.141 C192.974,12.464 193.145,12.059 194.071,11.924 L195.231,11.924 C196.227,11.897 197.025,12.199 197.624,12.829 L200.686,16.026 C201.104,16.354 201.526,16.354 201.951,16.026 L205.128,12.769 C205.552,12.193 206.253,11.904 207.228,11.904 L208.827,11.904 C210.032,11.931 210.335,12.219 209.736,12.769 L203.048,19.091 L203.048,24.539 L203.048,24.54 Z" id="Combined-Shape"></path>
                <path d="M7.31262207,6.16943359 C6.17502018,7.71196078 30.3146516,26.4924869 35.8907684,30.1506694 C35.8015706,30.2790663 35.7182362,30.4118432 35.6411527,30.5486124 C31.9891021,28.7900528 27.5706166,25.8486136 21.25,21.48 C8.761,12.848 -0.242,4.332 1.14,2.462 C2.49238827,0.632067974 13.2915563,5.84245274 25.4579375,14.1555134 C25.4275663,14.1781128 25.397278,14.2008174 25.3670732,14.2236267 C21.7591937,12.2391886 8.19670137,4.97357754 7.31262207,6.16943359 Z M61.439,34.849 C61.439,35.32 61.261,35.695 60.904,35.974 C60.547,36.252 60.037,36.392 59.374,36.392 L54.517,36.392 L54.517,29.652 L59.347,29.652 C60.742,29.652 61.439,30.154 61.439,31.159 L61.439,34.849 Z M60.068,34.526 L60.068,31.429 C60.068,30.89 59.685,30.621 58.919,30.621 L55.909,30.621 L55.909,35.415 L58.919,35.415 C59.685,35.415 60.068,35.118 60.068,34.525 L60.068,34.526 Z M74.944,33.516 L70.402,33.516 L70.402,34.654 C70.402,35.157 70.807,35.408 71.619,35.408 L75.217,35.408 L75.217,36.392 L71.241,36.392 C70.555,36.392 70.021,36.277 69.639,36.048 C69.219,35.792 69.009,35.431 69.009,34.964 L69.009,31.173 C69.009,30.707 69.195,30.34 69.569,30.073 C69.942,29.805 70.457,29.672 71.116,29.672 L75.217,29.672 L75.217,30.655 L71.605,30.655 C70.803,30.655 70.402,30.902 70.402,31.395 L70.402,32.547 L74.944,32.547 L74.944,33.516 Z M90.543,29.658 L87.372,35.873 C87.162,36.281 86.832,36.486 86.384,36.486 C85.927,36.486 85.594,36.281 85.384,35.873 L82.212,29.658 L83.689,29.658 L86.371,35.112 L89.079,29.658 L90.543,29.658 Z M103.165,33.516 L98.622,33.516 L98.622,34.654 C98.622,35.157 99.028,35.408 99.84,35.408 L103.438,35.408 L103.438,36.392 L99.463,36.392 C98.776,36.392 98.242,36.277 97.859,36.048 C97.439,35.792 97.229,35.431 97.229,34.964 L97.229,31.173 C97.229,30.707 97.415,30.34 97.789,30.073 C98.163,29.805 98.679,29.672 99.336,29.672 L103.438,29.672 L103.438,30.655 L99.826,30.655 C99.024,30.655 98.622,30.902 98.622,31.395 L98.622,32.547 L103.165,32.547 L103.165,33.516 Z M117.538,36.392 L113.835,36.392 C113.022,36.392 112.4,36.272 111.965,36.031 C111.532,35.791 111.315,35.372 111.315,34.775 L111.315,29.652 L112.708,29.652 L112.708,34.539 C112.708,34.885 112.822,35.125 113.05,35.259 C113.223,35.364 113.592,35.415 114.157,35.415 L117.537,35.415 L117.537,36.392 L117.538,36.392 Z M131.134,34.863 C131.134,35.882 130.371,36.391 128.844,36.391 L126.737,36.391 C126,36.391 125.449,36.279 125.086,36.055 C124.647,35.785 124.428,35.393 124.428,34.875 L124.428,31.2 C124.428,30.688 124.651,30.291 125.099,30.008 C125.454,29.775 126,29.658 126.737,29.658 L128.858,29.658 C130.375,29.658 131.134,30.172 131.134,31.2 L131.134,34.863 Z M129.762,34.62 L129.762,31.482 C129.762,31.168 129.666,30.95 129.475,30.826 C129.283,30.702 128.969,30.642 128.529,30.642 L127.066,30.642 C126.618,30.642 126.299,30.702 126.108,30.826 C125.916,30.95 125.821,31.168 125.821,31.482 L125.821,34.593 C125.821,34.872 125.926,35.085 126.136,35.233 C126.308,35.35 126.618,35.408 127.066,35.408 L128.529,35.408 C128.959,35.408 129.271,35.35 129.468,35.233 C129.664,35.117 129.762,34.913 129.762,34.62 Z M145.584,32.412 C145.584,32.86 145.399,33.214 145.031,33.472 C144.662,33.731 144.158,33.86 143.519,33.86 L140.109,33.86 L140.109,36.392 L138.717,36.392 L138.717,29.638 L143.449,29.638 C144.059,29.638 144.558,29.748 144.939,29.968 C145.35,30.21 145.56,30.542 145.57,30.964 C145.579,31.418 145.584,31.9 145.584,32.412 Z M144.19,32.095 L144.19,31.294 C144.19,30.841 143.82,30.614 143.078,30.614 L140.11,30.614 L140.11,32.857 L143.042,32.857 C143.808,32.857 144.19,32.602 144.19,32.095 Z M162.666,36.425 L161.336,36.425 L161.336,31.125 L158.879,35.845 C158.641,36.308 158.307,36.54 157.878,36.54 C157.621,36.54 157.411,36.472 157.248,36.338 C157.119828,36.2052563 157.013509,36.053034 156.933,35.887 L154.42,31.125 L154.42,36.425 L153.09,36.425 L153.09,30.56 C153.09,30.304 153.195,30.092 153.405,29.924 C153.615,29.755 153.907,29.672 154.28,29.672 C154.845,29.672 155.232,29.881 155.442,30.297 L157.864,35.071 L160.328,30.291 C160.548,29.868 160.93,29.658 161.476,29.658 C161.858,29.658 162.152,29.744 162.357,29.917 C162.55708,30.0782506 162.671187,30.3230822 162.666,30.58 L162.666,36.425 Z M176.17,33.516 L171.627,33.516 L171.627,34.654 C171.627,35.157 172.034,35.408 172.845,35.408 L176.443,35.408 L176.443,36.392 L172.467,36.392 C171.781,36.392 171.247,36.277 170.864,36.048 C170.444,35.792 170.234,35.431 170.234,34.964 L170.234,31.173 C170.234,30.707 170.421,30.34 170.794,30.073 C171.168,29.805 171.684,29.672 172.341,29.672 L176.443,29.672 L176.443,30.655 L172.831,30.655 C172.029,30.655 171.627,30.902 171.627,31.395 L171.627,32.547 L176.17,32.547 L176.17,33.516 Z M191.215,35.583 C191.220186,35.8265866 191.114636,36.0593851 190.928,36.216 C190.718,36.405 190.435,36.499 190.08,36.499 C189.749,36.499 189.493,36.428 189.31,36.284 C189.23,36.221 189.09,36.038 188.89,35.738 L185.65,30.991 L185.65,36.405 L184.32,36.405 L184.32,30.64 C184.32,29.985 184.697,29.657 185.454,29.657 C185.799,29.657 186.06,29.727 186.237,29.867 C186.335,29.941 186.48,30.124 186.671,30.411 L189.884,35.151 L189.884,29.72 L191.214,29.72 L191.214,35.584 L191.215,35.583 Z M204.251,30.621 L201.871,30.621 L201.871,36.391 L200.478,36.391 L200.478,30.621 L198.112,30.621 L198.112,29.638 L204.252,29.638 L204.251,30.621 Z" id="Combined-Shape" fill-opacity="0.5"></path>
            </g>
        </g>
    </g>
</svg>