<svg width="210" height="46" xmlns="http://www.w3.org/2000/svg"><g fill="#FFF"><path d="M24.365 38.954A15.96 15.96 0 0 1 19 27c0-8.837 7.163-16 16-16 5.718 0 10.736 3 13.565 7.511A15.804 15.804 0 0 0 36.641 13.1c-8.749 0-15.841 7.092-15.841 15.842 0 3.797 1.336 7.283 3.565 10.012zm14.297-1.135a5 5 0 1 1 5.51-7.577 4.7 4.7 0 1 0-5.51 7.577zM57.43 25.273c-.217.429-.59.65-1.12.663l-1.932-.02c-.585-.014-.742-.294-.47-.844l6.468-12.283c.32-.59 1.073-.884 2.257-.884 1.185 0 1.92.28 2.205.844l4.964 9.498 4.974-9.458c.3-.59 1.041-.884 2.226-.884 1.184 0 1.926.28 2.226.844l6.385 12.323c.299.562.122.85-.534.864h-1.86c-.515-.014-.881-.234-1.096-.663l-4.494-9.046c-.418-1.072-.833-1.072-1.244 0L72.06 24.86c-.613.717-1.216 1.075-1.808 1.075h-1.15c-.543 0-1.073-.345-1.587-1.034l-4.285-8.675c-.412-.985-.819-.985-1.223 0l-4.577 9.046v.001zm34.818-4.965v1.779c0 .683.36 1.025 1.076 1.025h11.872c1.024 0 1.535.465 1.535 1.398 0 .937-.55 1.406-1.65 1.406H90.566c-1.303 0-1.954-.543-1.954-1.628V13.553c0-1.099.62-1.649 1.86-1.649h14.724c1.024-.013 1.535.446 1.535 1.378 0 .951-.504 1.413-1.514 1.386H93.324c-.717.04-1.076.37-1.076.986v1.88h5.935c1.248.026 1.871.491 1.871 1.397 0 .944-.644 1.404-1.933 1.377h-5.873zm26.01 0c-1.282.027-1.923-.433-1.923-1.377 0-.906.613-1.37 1.84-1.398h3.834c1.045 0 1.696-.214 1.954-.643.056-.094.102-.203.136-.327.035-.123.053-.27.053-.437 0-.356-.076-.615-.226-.779-.15-.164-.46-.303-.933-.417a7.321 7.321 0 0 0-1.05-.15c-.479-.037-.958-.06-1.438-.071h-6.02c-.842 0-1.263.341-1.263 1.025v8.776c.048.95-.551 1.42-1.798 1.406-1.226 0-1.84-.469-1.84-1.406V13.674c0-1.167.68-1.756 2.038-1.77h8.82c3.127.014 5.284.654 6.469 1.92.57.657.856 1.424.856 2.302-.111 1.648-.989 2.63-2.633 2.945 1.63.288 2.487 1.176 2.571 2.663v2.776c0 .937-.613 1.406-1.84 1.406-1.212 0-1.804-.469-1.776-1.406v-2.795a.78.78 0 0 0 .01-.417 1.319 1.319 0 0 0-.136-.327c-.258-.443-.91-.663-1.954-.663h-3.751zm30.462 4.202c0 .937-.512 1.413-1.537 1.426h-7.481c-2.724 0-4.93-.64-6.615-1.92-1.658-1.273-2.488-2.968-2.488-5.085 0-2.09.83-3.773 2.488-5.046 1.714-1.294 3.898-1.954 6.552-1.98h7.544c1.025-.014 1.537.445 1.537 1.377 0 .95-.506 1.413-1.515 1.386l-.607.04h-6.96c-1.58.028-2.88.433-3.897 1.217-1.004.811-1.505 1.812-1.505 3.006 0 1.782.937 3.025 2.811 3.729a6.35 6.35 0 0 0 2.592.452h7.544c1.025 0 1.537.465 1.537 1.397v.001zm20.993-10.817v5.238c.042 2.103-.777 3.799-2.456 5.085-1.658 1.28-3.853 1.92-6.582 1.92-2.725 0-4.93-.64-6.616-1.92-1.658-1.272-2.487-2.968-2.487-5.085v-5.61c0-.904.613-1.37 1.84-1.396 1.246-.014 1.846.452 1.796 1.397v5.609c0 1.782.937 3.025 2.811 3.728.941.316 1.826.473 2.656.473 2.117 0 3.68-.63 4.691-1.89.244-.321.426-.677.548-1.065a3.49 3.49 0 0 0 .142-1.266v-5.59c-.042-.944.557-1.41 1.797-1.396 1.226.026 1.84.492 1.84 1.397l.02.371zm11.547 6.615c-1.282.027-1.923-.433-1.923-1.377 0-.906.613-1.37 1.84-1.398h3.834c1.045 0 1.697-.214 1.954-.643.056-.094.102-.203.136-.327.035-.123.053-.27.053-.437 0-.356-.075-.615-.225-.779-.15-.164-.461-.303-.935-.417a7.321 7.321 0 0 0-1.05-.15c-.478-.037-.957-.06-1.437-.071h-6.02c-.843 0-1.263.341-1.263 1.025v8.776c.048.95-.551 1.42-1.798 1.406-1.226 0-1.84-.469-1.84-1.406V13.674c0-1.167.68-1.756 2.038-1.77h8.82c3.128.014 5.284.654 6.469 1.92.57.657.857 1.424.857 2.302-.112 1.648-.99 2.63-2.634 2.945 1.63.288 2.487 1.176 2.571 2.663v2.776c0 .937-.614 1.406-1.84 1.406-1.212 0-1.803-.469-1.775-1.406v-2.795a.78.78 0 0 0 .009-.417 1.318 1.318 0 0 0-.136-.327c-.257-.443-.909-.663-1.954-.663h-3.751zm21.788 4.232c.014.917-.614 1.376-1.88 1.376-1.262 0-1.85-.47-1.767-1.407v-5.418l-.189-.18c-.068-.068-.175-.173-.318-.317-.199-.2-.399-.4-.6-.598a135.444 135.444 0 0 1-2.54-2.579 939.391 939.391 0 0 1-2.195-2.276c-.585-.677-.414-1.082.512-1.217h1.16c.996-.027 1.794.275 2.393.905l3.062 3.197c.418.328.84.328 1.265 0l3.177-3.257c.424-.576 1.125-.865 2.1-.865h1.599c1.205.027 1.508.315.909.865l-6.688 6.322v5.449z"/><path d="M7.313 6.17C6.175 7.711 30.315 26.491 35.89 30.15c-.09.13-.173.262-.25.399-3.652-1.759-8.07-4.7-14.391-9.069C8.761 12.848-.242 4.332 1.14 2.462c1.352-1.83 12.152 3.38 24.318 11.694l-.09.068c-3.609-1.985-17.171-9.25-18.055-8.055zm54.126 28.679c0 .471-.178.846-.535 1.125-.357.278-.867.418-1.53.418h-4.857v-6.74h4.83c1.395 0 2.092.502 2.092 1.507v3.69zm-1.371-.323v-3.097c0-.539-.383-.808-1.149-.808h-3.01v4.794h3.01c.766 0 1.149-.297 1.149-.89v.001zm14.876-1.01h-4.542v1.138c0 .503.405.754 1.217.754h3.598v.984h-3.976c-.686 0-1.22-.115-1.602-.344-.42-.256-.63-.617-.63-1.084v-3.791c0-.466.186-.833.56-1.1.373-.268.888-.401 1.547-.401h4.101v.983h-3.612c-.802 0-1.203.247-1.203.74v1.152h4.542v.969zm15.599-3.858l-3.171 6.215c-.21.408-.54.613-.988.613-.457 0-.79-.205-1-.613l-3.172-6.215h1.477l2.682 5.454 2.708-5.454h1.464zm12.622 3.858h-4.543v1.138c0 .503.406.754 1.218.754h3.598v.984h-3.975c-.687 0-1.221-.115-1.604-.344-.42-.256-.63-.617-.63-1.084v-3.791c0-.466.186-.833.56-1.1.374-.268.89-.401 1.547-.401h4.102v.983h-3.612c-.802 0-1.204.247-1.204.74v1.152h4.543v.969zm14.373 2.876h-3.703c-.813 0-1.435-.12-1.87-.361-.433-.24-.65-.659-.65-1.256v-5.123h1.393v4.887c0 .346.114.586.342.72.173.105.542.156 1.107.156h3.38v.977h.001zm13.596-1.529c0 1.019-.763 1.528-2.29 1.528h-2.107c-.737 0-1.288-.112-1.651-.336-.439-.27-.658-.662-.658-1.18V31.2c0-.512.223-.909.671-1.192.355-.233.901-.35 1.638-.35h2.121c1.517 0 2.276.514 2.276 1.542v3.663zm-1.372-.243v-3.138c0-.314-.096-.532-.287-.656-.192-.124-.506-.184-.946-.184h-1.463c-.448 0-.767.06-.958.184-.192.124-.287.342-.287.656v3.111c0 .279.105.492.315.64.172.117.482.175.93.175h1.463c.43 0 .742-.058.939-.175.196-.116.294-.32.294-.613zm15.822-2.208c0 .448-.185.802-.553 1.06-.369.259-.873.388-1.512.388h-3.41v2.532h-1.392v-6.754h4.732c.61 0 1.109.11 1.49.33.411.242.621.574.631.996.009.454.014.936.014 1.448zm-1.394-.317v-.801c0-.453-.37-.68-1.112-.68h-2.968v2.243h2.932c.766 0 1.148-.255 1.148-.762zm18.476 4.33h-1.33v-5.3l-2.457 4.72c-.238.463-.572.695-1.001.695-.257 0-.467-.068-.63-.202a1.746 1.746 0 0 1-.315-.451l-2.513-4.762v5.3h-1.33V30.56c0-.256.105-.468.315-.636.21-.169.502-.252.875-.252.565 0 .952.209 1.162.625l2.422 4.774 2.464-4.78c.22-.423.602-.633 1.148-.633.382 0 .676.086.881.259a.83.83 0 0 1 .309.663v5.845zm13.504-2.909h-4.543v1.138c0 .503.407.754 1.218.754h3.598v.984h-3.976c-.686 0-1.22-.115-1.603-.344-.42-.256-.63-.617-.63-1.084v-3.791c0-.466.187-.833.56-1.1.374-.268.89-.401 1.547-.401h4.102v.983h-3.612c-.802 0-1.204.247-1.204.74v1.152h4.543v.969zm15.045 2.067a.804.804 0 0 1-.287.633c-.21.189-.493.283-.848.283-.331 0-.587-.071-.77-.215-.08-.063-.22-.246-.42-.546l-3.24-4.747v5.414h-1.33V30.64c0-.655.377-.983 1.134-.983.345 0 .606.07.783.21.098.074.243.257.434.544l3.213 4.74V29.72h1.33v5.864l.001-.001zm13.036-4.962h-2.38v5.77h-1.393v-5.77h-2.366v-.983h6.14l-.001.983z" fill-opacity=".5"/></g></svg>